<svg width="20" height="20" viewBox="0 0 20 20" fill="none" xmlns="http://www.w3.org/2000/svg">
<path d="M10 0C4.48603 0 0 4.48593 0 10C0 15.5141 4.48603 20.0001 10 20.0001C15.514 20.0001 20 15.5141 20 10C20 4.48593 15.5141 0 10 0ZM15.7422 8.31092L9.45969 14.5934C9.19255 14.8605 8.83746 15.0076 8.45972 15.0076C8.08198 15.0076 7.72688 14.8605 7.45975 14.5934L4.25782 11.3915C3.99069 11.1244 3.84356 10.7693 3.84356 10.3915C3.84356 10.0137 3.99069 9.65857 4.25782 9.39144C4.52485 9.12431 4.87995 8.97718 5.25779 8.97718C5.63553 8.97718 5.99073 9.12431 6.25776 9.39155L8.45961 11.5933L13.742 6.31087C14.0092 6.04374 14.3643 5.89672 14.742 5.89672C15.1197 5.89672 15.4748 6.04374 15.742 6.31087C16.2936 6.86246 16.2936 7.75954 15.7422 8.31092Z" fill="#ED165F"/>
</svg>
