<svg width="17" height="16" viewBox="0 0 16 15" fill="none" xmlns="http://www.w3.org/2000/svg">
<path d="M7.99998 2.78231L7.59484 2.22207C7.32059 1.84283 7.01279 1.52249 6.67765 1.26333L6.67763 1.26331C6.01889 0.75384 5.2802 0.5 4.4696 0.5C3.3719 0.5 2.36919 0.93763 1.63681 1.73195L7.99998 2.78231ZM7.99998 2.78231L8.40514 2.22209M7.99998 2.78231L8.40514 2.22209M8.40514 2.22209C8.67951 1.84273 8.9872 1.5225 9.32222 1.26333C9.9811 0.753836 10.7198 0.5 11.5304 0.5C12.6281 0.5 13.6307 0.937629 14.3631 1.73197C15.0886 2.51893 15.5 3.60726 15.5 4.80835C15.5 6.01801 15.0559 7.14755 14.0282 8.38748L14.0282 8.3875C13.0934 9.51553 11.7397 10.6712 10.1167 12.0542L10.1167 12.0543L10.1023 12.0665C9.55544 12.5327 8.93406 13.0623 8.28914 13.6263L8.28888 13.6265C8.20935 13.6962 8.10675 13.7349 8 13.7349C7.89325 13.7349 7.79076 13.6963 7.71091 13.6263L7.71058 13.626C7.06081 13.0579 6.43532 12.5248 5.88562 12.0563L5.88366 12.0546L5.88363 12.0546M8.40514 2.22209L5.88363 12.0546M5.88363 12.0546C4.26041 10.6713 2.9067 9.51554 1.9719 8.38762C0.944203 7.14753 0.5 6.01798 0.5 4.80847C0.5 3.60728 0.911397 2.51895 1.63676 1.73199L5.88363 12.0546Z" stroke="#ED165F"/>
</svg>
