<svg width="14" height="14" viewBox="0 0 14 14" fill="none" xmlns="http://www.w3.org/2000/svg">
<path d="M13.0869 2.71463H12.0679C12.2023 2.5019 12.291 2.2631 12.3163 2.01056C12.3971 1.20345 11.972 0.479938 11.2484 0.159169C10.5832 -0.135678 9.83572 -0.0151468 9.29746 0.473048L8.01066 1.63926C7.76006 1.36516 7.39981 1.1929 6.99999 1.1929C6.59946 1.1929 6.23863 1.36571 5.98797 1.64065L4.69953 0.472911C4.1604 -0.0152835 3.4132 -0.13535 2.74834 0.159333C2.02488 0.48013 1.59974 1.20389 1.68079 2.01097C1.70614 2.26332 1.79479 2.502 1.92918 2.71463H0.913033C0.408761 2.71463 0 3.12342 0 3.62766V4.99723C0 5.24934 0.204394 5.45376 0.45653 5.45376H13.5435C13.7956 5.45376 14 5.24936 14 4.99723V3.62766C14 3.12342 13.5912 2.71463 13.0869 2.71463ZM5.63042 2.56246V2.71463H3.48277C2.91533 2.71463 2.46875 2.18564 2.61048 1.59485C2.6729 1.33467 2.8607 1.11289 3.10359 1.00062C3.43713 0.846453 3.8066 0.895945 4.08673 1.1495L5.63081 2.54901C5.63072 2.55352 5.63042 2.55795 5.63042 2.56246ZM11.4104 1.88934C11.3763 2.36384 10.9477 2.71468 10.472 2.71468H8.36955V2.56252C8.36955 2.55713 8.36922 2.5518 8.36917 2.54641C8.71895 2.22933 9.47776 1.54158 9.88931 1.16853C10.1232 0.956539 10.4505 0.857582 10.753 0.947816C11.1872 1.07732 11.4421 1.44651 11.4104 1.88934Z" fill="black"/>
<path d="M0.913086 6.36679V13.0624C0.913086 13.5667 1.32185 13.9755 1.82612 13.9755H6.08698V6.36679H0.913086Z" fill="black"/>
<path d="M7.91309 6.36679V13.9755H12.1739C12.6782 13.9755 13.087 13.5667 13.087 13.0624V6.36679H7.91309Z" fill="black"/>
</svg>
