<svg width="16" height="16" viewBox="0 0 16 16" fill="none" xmlns="http://www.w3.org/2000/svg">
<path d="M7.99857 0C3.58105 0 0 3.58219 0 8.00029C0 12.4178 3.58105 16 7.99857 16C12.4184 16 16 12.4172 16 8.00029C16 3.58219 12.4184 0 7.99857 0ZM11.4383 10.1664L10.1641 11.4389C10.1641 11.4389 8.14847 9.27617 7.998 9.27617C7.84981 9.27617 5.83358 11.4389 5.83358 11.4389L4.55884 10.1664C4.55884 10.1664 6.72383 8.17994 6.72383 8.00315C6.72383 7.82349 4.55884 5.83644 4.55884 5.83644L5.83358 4.56113C5.83358 4.56113 7.8664 6.72498 7.998 6.72498C8.13073 6.72498 10.1641 4.56113 10.1641 4.56113L11.4383 5.83644C11.4383 5.83644 9.27273 7.8521 9.27273 8.00315C9.27273 8.14675 11.4383 10.1664 11.4383 10.1664Z" fill="#ED165F"/>
</svg>
