<svg width="16" height="16" viewBox="0 0 16 16" fill="none" xmlns="http://www.w3.org/2000/svg">
<path d="M12.8 12.8C11.912 12.8 11.2 13.512 11.2 14.4C11.2 14.8243 11.3686 15.2313 11.6686 15.5314C11.9687 15.8314 12.3757 16 12.8 16C13.2243 16 13.6313 15.8314 13.9314 15.5314C14.2314 15.2313 14.4 14.8243 14.4 14.4C14.4 13.9757 14.2314 13.5687 13.9314 13.2686C13.6313 12.9686 13.2243 12.8 12.8 12.8ZM0 0V1.6H1.6L4.48 7.672L3.392 9.632C3.272 9.856 3.2 10.12 3.2 10.4C3.2 10.8243 3.36857 11.2313 3.66863 11.5314C3.96869 11.8314 4.37565 12 4.8 12H14.4V10.4H5.136C5.08296 10.4 5.03209 10.3789 4.99458 10.3414C4.95707 10.3039 4.936 10.253 4.936 10.2C4.936 10.16 4.944 10.128 4.96 10.104L5.68 8.8H11.64C12.24 8.8 12.768 8.464 13.04 7.976L15.904 2.8C15.96 2.672 16 2.536 16 2.4C16 2.18783 15.9157 1.98434 15.7657 1.83431C15.6157 1.68429 15.4122 1.6 15.2 1.6H3.368L2.616 0H0ZM4.8 12.8C3.912 12.8 3.2 13.512 3.2 14.4C3.2 14.8243 3.36857 15.2313 3.66863 15.5314C3.96869 15.8314 4.37565 16 4.8 16C5.22435 16 5.63131 15.8314 5.93137 15.5314C6.23143 15.2313 6.4 14.8243 6.4 14.4C6.4 13.9757 6.23143 13.5687 5.93137 13.2686C5.63131 12.9686 5.22435 12.8 4.8 12.8Z" fill="black"/>
</svg>
