<svg width="16" height="16" viewBox="0 0 16 16" fill="none" xmlns="http://www.w3.org/2000/svg">
<path d="M11.2075 3.47954V0.781918C11.2075 0.351863 10.8558 0 10.4256 0H0.781918C0.351863 0 0 0.351863 0 0.781918V1.29016V11.4812V11.8332C0 12.1197 0.169416 12.3934 0.417023 12.5237L6.3596 15.5994C6.62024 15.7297 6.93301 15.5474 6.93301 15.2475V12.2502H10.4256C10.8558 12.2502 11.2075 11.8984 11.2075 11.4683V7.19378H9.64366V10.2954C9.64366 10.5169 9.47424 10.6863 9.2527 10.6863H6.94604V6.6725V4.13126V4.05307C6.94604 3.76637 6.77662 3.4927 6.52902 3.36238L3.02342 1.56397H9.2527C9.47424 1.56397 9.64366 1.73338 9.64366 1.95493V3.4927H11.2075V3.47954Z" fill="#ED165F"/>
<path d="M13.2148 2.20227L15.7561 4.7435C16.0819 5.0693 16.0819 5.55148 15.7561 5.87728L13.2148 8.41852C12.889 8.74431 12.3937 8.75748 12.0679 8.43168C11.7552 8.11904 11.7942 7.59763 12.0941 7.28486L13.2408 6.15108H8.79698C8.57557 6.15108 8.3539 6.05986 8.21055 5.89044C7.84565 5.49948 7.93687 4.80879 8.40603 4.54815C8.52331 4.48299 8.66666 4.44389 8.79698 4.44389H13.2409C13.2409 4.44389 12.1072 3.31011 12.0942 3.31011C11.7943 3.01038 11.7552 2.47607 12.068 2.17633C12.3808 1.86357 12.889 1.87647 13.2148 2.20227Z" fill="#ED165F"/>
</svg>
